<?xml version="1.0" encoding="UTF-8" standalone="no"?>
<!DOCTYPE svg PUBLIC "-//W3C//DTD SVG 1.1//EN"
 "http://www.w3.org/Graphics/SVG/1.1/DTD/svg11.dtd">
<!-- Generated by graphviz version 2.43.0 (0)
 -->
<!-- Title: topology Pages: 1 -->
<svg width="331pt" height="546pt"
 viewBox="0.00 0.00 331.00 546.25" xmlns="http://www.w3.org/2000/svg" xmlns:xlink="http://www.w3.org/1999/xlink">
<g id="graph0" class="graph" transform="scale(1 1) rotate(0) translate(4 542.25)">
<title>topology</title>
<polygon fill="white" stroke="transparent" points="-4,4 -4,-542.25 327,-542.25 327,4 -4,4"/>
<g id="clust1" class="cluster">
<title>cluster_fanout</title>
<path fill="white" stroke="#e1e0d9" d="M58,-331C58,-331 213,-331 213,-331 219,-331 225,-337 225,-343 225,-343 225,-391 225,-391 225,-397 219,-403 213,-403 213,-403 58,-403 58,-403 52,-403 46,-397 46,-391 46,-391 46,-343 46,-343 46,-337 52,-331 58,-331"/>
<text text-anchor="middle" x="135.5" y="-390.2" font-family="Helvetica,sans-Serif" font-size="11.00" fill="#52514e">distinct durables → broadcast</text>
</g>
<g id="clust2" class="cluster">
<title>cluster_partitioned</title>
<path fill="white" stroke="#e1e0d9" d="M20,-173C20,-173 272,-173 272,-173 278,-173 284,-179 284,-185 284,-185 284,-245 284,-245 284,-251 278,-257 272,-257 272,-257 20,-257 20,-257 14,-257 8,-251 8,-245 8,-245 8,-185 8,-185 8,-179 14,-173 20,-173"/>
<text text-anchor="middle" x="146" y="-244.2" font-family="Helvetica,sans-Serif" font-size="11.00" fill="#52514e">per&#45;replica durables (&#45;&#45;p{n}) → partitioned join,</text>
<text text-anchor="middle" x="146" y="-232.2" font-family="Helvetica,sans-Serif" font-size="11.00" fill="#52514e">each replica owns hash(trace_id) % N</text>
</g>
<g id="clust3" class="cluster">
<title>cluster_competing</title>
<path fill="white" stroke="#e1e0d9" d="M37,-8C37,-8 250,-8 250,-8 256,-8 262,-14 262,-20 262,-20 262,-68 262,-68 262,-74 256,-80 250,-80 250,-80 37,-80 37,-80 31,-80 25,-74 25,-68 25,-68 25,-20 25,-20 25,-14 31,-8 37,-8"/>
<text text-anchor="middle" x="143.5" y="-67.2" font-family="Helvetica,sans-Serif" font-size="11.00" fill="#52514e">shared durable → competing consumers</text>
</g>
<!-- producer -->
<g id="node1" class="node">
<title>producer</title>
<path fill="#eaf2fc" stroke="#2a78d6" stroke-width="1.2" d="M152.5,-538.25C152.5,-538.25 117.5,-538.25 117.5,-538.25 111.5,-538.25 105.5,-532.25 105.5,-526.25 105.5,-526.25 105.5,-514.25 105.5,-514.25 105.5,-508.25 111.5,-502.25 117.5,-502.25 117.5,-502.25 152.5,-502.25 152.5,-502.25 158.5,-502.25 164.5,-508.25 164.5,-514.25 164.5,-514.25 164.5,-526.25 164.5,-526.25 164.5,-532.25 158.5,-538.25 152.5,-538.25"/>
<text text-anchor="middle" x="135" y="-517.75" font-family="Helvetica,sans-Serif" font-size="10.00">producer</text>
</g>
<!-- stream_p -->
<g id="node2" class="node">
<title>stream_p</title>
<path fill="#fdf3e0" stroke="#eda100" stroke-width="1.2" d="M223.5,-468.6C223.5,-470.68 183.83,-472.38 135,-472.38 86.17,-472.38 46.5,-470.68 46.5,-468.6 46.5,-468.6 46.5,-434.65 46.5,-434.65 46.5,-432.57 86.17,-430.87 135,-430.87 183.83,-430.87 223.5,-432.57 223.5,-434.65 223.5,-434.65 223.5,-468.6 223.5,-468.6"/>
<path fill="none" stroke="#eda100" stroke-width="1.2" d="M223.5,-468.6C223.5,-466.52 183.83,-464.83 135,-464.83 86.17,-464.83 46.5,-466.52 46.5,-468.6"/>
<text text-anchor="middle" x="135" y="-454.62" font-family="Helvetica,sans-Serif" font-size="10.00">stream vf&#45;{flow}&#45;{run}&#45;producer</text>
<text text-anchor="middle" x="135" y="-443.62" font-family="Helvetica,sans-Serif" font-size="10.00">subject vf.{flow}.{run}.producer</text>
</g>
<!-- producer&#45;&gt;stream_p -->
<g id="edge1" class="edge">
<title>producer&#45;&gt;stream_p</title>
<path fill="none" stroke="#52514e" d="M135,-502.09C135,-495.27 135,-487.25 135,-479.68"/>
<polygon fill="#52514e" stroke="#52514e" points="137.45,-479.32 135,-472.32 132.55,-479.32 137.45,-479.32"/>
<text text-anchor="middle" x="152" y="-485.05" font-family="Helvetica,sans-Serif" font-size="9.00">publish</text>
</g>
<!-- left -->
<g id="node3" class="node">
<title>left</title>
<path fill="white" stroke="#008300" stroke-width="1.2" d="M96,-375C96,-375 66,-375 66,-375 60,-375 54,-369 54,-363 54,-363 54,-351 54,-351 54,-345 60,-339 66,-339 66,-339 96,-339 96,-339 102,-339 108,-345 108,-351 108,-351 108,-363 108,-363 108,-369 102,-375 96,-375"/>
<text text-anchor="middle" x="81" y="-354.5" font-family="Helvetica,sans-Serif" font-size="10.00">left</text>
</g>
<!-- stream_p&#45;&gt;left -->
<g id="edge2" class="edge">
<title>stream_p&#45;&gt;left</title>
<path fill="none" stroke="#52514e" d="M66.21,-431.66C62.31,-428.62 58.84,-425.09 56,-421 47.59,-408.86 53.43,-393.49 61.57,-380.97"/>
<polygon fill="#52514e" stroke="#52514e" points="63.69,-382.22 65.7,-375.08 59.68,-379.4 63.69,-382.22"/>
<text text-anchor="middle" x="119.5" y="-413.8" font-family="Helvetica,sans-Serif" font-size="9.00">durable left&#45;&#45;from&#45;&#45;producer</text>
</g>
<!-- right -->
<g id="node4" class="node">
<title>right</title>
<path fill="white" stroke="#008300" stroke-width="1.2" d="M205,-375C205,-375 175,-375 175,-375 169,-375 163,-369 163,-363 163,-363 163,-351 163,-351 163,-345 169,-339 175,-339 175,-339 205,-339 205,-339 211,-339 217,-345 217,-351 217,-351 217,-363 217,-363 217,-369 211,-375 205,-375"/>
<text text-anchor="middle" x="190" y="-354.5" font-family="Helvetica,sans-Serif" font-size="10.00">right</text>
</g>
<!-- stream_p&#45;&gt;right -->
<g id="edge3" class="edge">
<title>stream_p&#45;&gt;right</title>
<path fill="none" stroke="#52514e" d="M176.7,-430.67C179.91,-427.81 182.76,-424.6 185,-421 192.13,-409.56 193.57,-394.59 193.14,-382.11"/>
<polygon fill="#52514e" stroke="#52514e" points="195.58,-381.93 192.69,-375.09 190.69,-382.23 195.58,-381.93"/>
<text text-anchor="middle" x="256" y="-413.8" font-family="Helvetica,sans-Serif" font-size="9.00">durable right&#45;&#45;from&#45;&#45;producer</text>
</g>
<!-- stream_l -->
<g id="node5" class="node">
<title>stream_l</title>
<path fill="#fdf3e0" stroke="#eda100" stroke-width="1.2" d="M120.5,-308.73C120.5,-310.53 101.9,-312 79,-312 56.1,-312 37.5,-310.53 37.5,-308.73 37.5,-308.73 37.5,-279.27 37.5,-279.27 37.5,-277.47 56.1,-276 79,-276 101.9,-276 120.5,-277.47 120.5,-279.27 120.5,-279.27 120.5,-308.73 120.5,-308.73"/>
<path fill="none" stroke="#eda100" stroke-width="1.2" d="M120.5,-308.73C120.5,-306.92 101.9,-305.45 79,-305.45 56.1,-305.45 37.5,-306.92 37.5,-308.73"/>
<text text-anchor="middle" x="79" y="-291.5" font-family="Helvetica,sans-Serif" font-size="10.00">stream …&#45;left</text>
</g>
<!-- left&#45;&gt;stream_l -->
<g id="edge4" class="edge">
<title>left&#45;&gt;stream_l</title>
<path fill="none" stroke="#52514e" d="M80.43,-338.68C80.24,-332.71 80.01,-325.9 79.8,-319.46"/>
<polygon fill="#52514e" stroke="#52514e" points="82.24,-319.07 79.56,-312.15 77.34,-319.23 82.24,-319.07"/>
</g>
<!-- stream_r -->
<g id="node6" class="node">
<title>stream_r</title>
<path fill="#fdf3e0" stroke="#eda100" stroke-width="1.2" d="M236,-308.73C236,-310.53 215.83,-312 191,-312 166.17,-312 146,-310.53 146,-308.73 146,-308.73 146,-279.27 146,-279.27 146,-277.47 166.17,-276 191,-276 215.83,-276 236,-277.47 236,-279.27 236,-279.27 236,-308.73 236,-308.73"/>
<path fill="none" stroke="#eda100" stroke-width="1.2" d="M236,-308.73C236,-306.92 215.83,-305.45 191,-305.45 166.17,-305.45 146,-306.92 146,-308.73"/>
<text text-anchor="middle" x="191" y="-291.5" font-family="Helvetica,sans-Serif" font-size="10.00">stream …&#45;right</text>
</g>
<!-- right&#45;&gt;stream_r -->
<g id="edge5" class="edge">
<title>right&#45;&gt;stream_r</title>
<path fill="none" stroke="#52514e" d="M190.28,-338.68C190.38,-332.71 190.49,-325.9 190.6,-319.46"/>
<polygon fill="#52514e" stroke="#52514e" points="193.05,-319.19 190.72,-312.15 188.15,-319.11 193.05,-319.19"/>
</g>
<!-- j0 -->
<g id="node7" class="node">
<title>j0</title>
<path fill="white" stroke="#008300" stroke-width="1.2" d="M110.5,-217C110.5,-217 45.5,-217 45.5,-217 39.5,-217 33.5,-211 33.5,-205 33.5,-205 33.5,-193 33.5,-193 33.5,-187 39.5,-181 45.5,-181 45.5,-181 110.5,-181 110.5,-181 116.5,-181 122.5,-187 122.5,-193 122.5,-193 122.5,-205 122.5,-205 122.5,-211 116.5,-217 110.5,-217"/>
<text text-anchor="middle" x="78" y="-196.5" font-family="Helvetica,sans-Serif" font-size="10.00">joiner replica 0</text>
</g>
<!-- stream_l&#45;&gt;j0 -->
<g id="edge6" class="edge">
<title>stream_l&#45;&gt;j0</title>
<path fill="none" stroke="#52514e" d="M78.82,-275.94C78.66,-261.48 78.44,-240.57 78.26,-224.35"/>
<polygon fill="#52514e" stroke="#52514e" points="80.71,-224.24 78.19,-217.26 75.81,-224.29 80.71,-224.24"/>
</g>
<!-- j1 -->
<g id="node8" class="node">
<title>j1</title>
<path fill="white" stroke="#008300" stroke-width="1.2" d="M224.5,-217C224.5,-217 159.5,-217 159.5,-217 153.5,-217 147.5,-211 147.5,-205 147.5,-205 147.5,-193 147.5,-193 147.5,-187 153.5,-181 159.5,-181 159.5,-181 224.5,-181 224.5,-181 230.5,-181 236.5,-187 236.5,-193 236.5,-193 236.5,-205 236.5,-205 236.5,-211 230.5,-217 224.5,-217"/>
<text text-anchor="middle" x="192" y="-196.5" font-family="Helvetica,sans-Serif" font-size="10.00">joiner replica 1</text>
</g>
<!-- stream_l&#45;&gt;j1 -->
<g id="edge7" class="edge">
<title>stream_l&#45;&gt;j1</title>
<path fill="none" stroke="#52514e" d="M107.44,-276.37C116.54,-270.62 126.45,-263.89 135,-257 148.02,-246.51 161.3,-233.4 171.76,-222.4"/>
<polygon fill="#52514e" stroke="#52514e" points="173.65,-223.96 176.66,-217.19 170.08,-220.61 173.65,-223.96"/>
</g>
<!-- stream_r&#45;&gt;j0 -->
<g id="edge8" class="edge">
<title>stream_r&#45;&gt;j0</title>
<path fill="none" stroke="#52514e" d="M162.27,-276.19C153.26,-270.48 143.46,-263.82 135,-257 121.98,-246.51 108.7,-233.4 98.24,-222.4"/>
<polygon fill="#52514e" stroke="#52514e" points="99.92,-220.61 93.34,-217.19 96.35,-223.96 99.92,-220.61"/>
</g>
<!-- stream_r&#45;&gt;j1 -->
<g id="edge9" class="edge">
<title>stream_r&#45;&gt;j1</title>
<path fill="none" stroke="#52514e" d="M191.18,-275.94C191.34,-261.48 191.56,-240.57 191.74,-224.35"/>
<polygon fill="#52514e" stroke="#52514e" points="194.19,-224.29 191.81,-217.26 189.29,-224.24 194.19,-224.29"/>
</g>
<!-- stream_j -->
<g id="node9" class="node">
<title>stream_j</title>
<path fill="#fdf3e0" stroke="#eda100" stroke-width="1.2" d="M139.5,-150.73C139.5,-152.53 118.21,-154 92,-154 65.79,-154 44.5,-152.53 44.5,-150.73 44.5,-150.73 44.5,-121.27 44.5,-121.27 44.5,-119.47 65.79,-118 92,-118 118.21,-118 139.5,-119.47 139.5,-121.27 139.5,-121.27 139.5,-150.73 139.5,-150.73"/>
<path fill="none" stroke="#eda100" stroke-width="1.2" d="M139.5,-150.73C139.5,-148.92 118.21,-147.45 92,-147.45 65.79,-147.45 44.5,-148.92 44.5,-150.73"/>
<text text-anchor="middle" x="92" y="-133.5" font-family="Helvetica,sans-Serif" font-size="10.00">stream …&#45;joiner</text>
</g>
<!-- j0&#45;&gt;stream_j -->
<g id="edge10" class="edge">
<title>j0&#45;&gt;stream_j</title>
<path fill="none" stroke="#52514e" d="M81.97,-180.68C83.38,-174.58 84.98,-167.6 86.48,-161.04"/>
<polygon fill="#52514e" stroke="#52514e" points="88.89,-161.52 88.06,-154.15 84.11,-160.42 88.89,-161.52"/>
</g>
<!-- j1&#45;&gt;stream_j -->
<g id="edge11" class="edge">
<title>j1&#45;&gt;stream_j</title>
<path fill="none" stroke="#52514e" d="M163.88,-180.85C152.17,-173.7 138.47,-165.35 126.19,-157.85"/>
<polygon fill="#52514e" stroke="#52514e" points="127.16,-155.58 119.91,-154.03 124.61,-159.76 127.16,-155.58"/>
</g>
<!-- s0 -->
<g id="node10" class="node">
<title>s0</title>
<path fill="white" stroke="#008300" stroke-width="1.2" d="M104,-52C104,-52 46,-52 46,-52 40,-52 34,-46 34,-40 34,-40 34,-28 34,-28 34,-22 40,-16 46,-16 46,-16 104,-16 104,-16 110,-16 116,-22 116,-28 116,-28 116,-40 116,-40 116,-46 110,-52 104,-52"/>
<text text-anchor="middle" x="75" y="-31.5" font-family="Helvetica,sans-Serif" font-size="10.00">sink replica 0</text>
</g>
<!-- stream_j&#45;&gt;s0 -->
<g id="edge12" class="edge">
<title>stream_j&#45;&gt;s0</title>
<path fill="none" stroke="#52514e" d="M78.4,-117.74C76.59,-114.65 75.01,-111.34 74,-108 69.25,-92.3 69.55,-73.81 71.02,-59.37"/>
<polygon fill="#52514e" stroke="#52514e" points="73.48,-59.47 71.87,-52.23 68.61,-58.89 73.48,-59.47"/>
<text text-anchor="middle" x="131" y="-100.8" font-family="Helvetica,sans-Serif" font-size="9.00">durable sink&#45;&#45;from&#45;&#45;joiner</text>
<text text-anchor="middle" x="131" y="-90.8" font-family="Helvetica,sans-Serif" font-size="9.00">(work is split)</text>
</g>
<!-- s1 -->
<g id="node11" class="node">
<title>s1</title>
<path fill="white" stroke="#008300" stroke-width="1.2" d="M236,-52C236,-52 178,-52 178,-52 172,-52 166,-46 166,-40 166,-40 166,-28 166,-28 166,-22 172,-16 178,-16 178,-16 236,-16 236,-16 242,-16 248,-22 248,-28 248,-28 248,-40 248,-40 248,-46 242,-52 236,-52"/>
<text text-anchor="middle" x="207" y="-31.5" font-family="Helvetica,sans-Serif" font-size="10.00">sink replica 1</text>
</g>
<!-- stream_j&#45;&gt;s1 -->
<g id="edge13" class="edge">
<title>stream_j&#45;&gt;s1</title>
<path fill="none" stroke="#52514e" d="M139.65,-132.05C157.65,-128.57 176.92,-121.62 190,-108 202.32,-95.18 206.33,-75.25 207.39,-59.45"/>
<polygon fill="#52514e" stroke="#52514e" points="209.86,-59.17 207.7,-52.07 204.96,-58.96 209.86,-59.17"/>
</g>
</g>
</svg>
