<?xml version="1.0" encoding="UTF-8" standalone="no"?>
<!DOCTYPE svg PUBLIC "-//W3C//DTD SVG 1.1//EN"
 "http://www.w3.org/Graphics/SVG/1.1/DTD/svg11.dtd">
<!-- Generated by graphviz version 2.43.0 (0)
 -->
<!-- Title: architecture Pages: 1 -->
<svg width="436pt" height="429pt"
 viewBox="0.00 0.00 436.00 428.50" xmlns="http://www.w3.org/2000/svg" xmlns:xlink="http://www.w3.org/1999/xlink">
<g id="graph0" class="graph" transform="scale(1 1) rotate(0) translate(4 424.5)">
<title>architecture</title>
<polygon fill="white" stroke="transparent" points="-4,4 -4,-424.5 432,-424.5 432,4 -4,4"/>
<g id="clust1" class="cluster">
<title>cluster_build</title>
<path fill="white" stroke="#e1e0d9" d="M115,-177.5C115,-177.5 315,-177.5 315,-177.5 321,-177.5 327,-183.5 327,-189.5 327,-189.5 327,-400.5 327,-400.5 327,-406.5 321,-412.5 315,-412.5 315,-412.5 115,-412.5 115,-412.5 109,-412.5 103,-406.5 103,-400.5 103,-400.5 103,-189.5 103,-189.5 103,-183.5 109,-177.5 115,-177.5"/>
<text text-anchor="middle" x="206" y="-398.9" font-family="Helvetica,sans-Serif" font-size="12.00" fill="#0b0b0b">Operator machine — build time</text>
</g>
<!-- flowdef -->
<g id="node1" class="node">
<title>flowdef</title>
<path fill="#eaf2fc" stroke="#2a78d6" stroke-width="1.2" d="M307,-383.5C307,-383.5 123,-383.5 123,-383.5 117,-383.5 111,-377.5 111,-371.5 111,-371.5 111,-359.5 111,-359.5 111,-353.5 117,-347.5 123,-347.5 123,-347.5 307,-347.5 307,-347.5 313,-347.5 319,-353.5 319,-359.5 319,-359.5 319,-371.5 319,-371.5 319,-377.5 313,-383.5 307,-383.5"/>
<text text-anchor="middle" x="215" y="-368.7" font-family="Helvetica,sans-Serif" font-size="11.00">build_flow()</text>
<text text-anchor="middle" x="215" y="-356.7" font-family="Helvetica,sans-Serif" font-size="11.00">Producer → Processor → Consumer</text>
</g>
<!-- validate -->
<g id="node2" class="node">
<title>validate</title>
<path fill="white" stroke="#2a78d6" stroke-width="1.2" d="M305.5,-316.5C305.5,-316.5 124.5,-316.5 124.5,-316.5 118.5,-316.5 112.5,-310.5 112.5,-304.5 112.5,-304.5 112.5,-284.5 112.5,-284.5 112.5,-278.5 118.5,-272.5 124.5,-272.5 124.5,-272.5 305.5,-272.5 305.5,-272.5 311.5,-272.5 317.5,-278.5 317.5,-284.5 317.5,-284.5 317.5,-304.5 317.5,-304.5 317.5,-310.5 311.5,-316.5 305.5,-316.5"/>
<text text-anchor="middle" x="215" y="-303.7" font-family="Helvetica,sans-Serif" font-size="11.00">GraphEngine</text>
<text text-anchor="middle" x="215" y="-291.7" font-family="Helvetica,sans-Serif" font-size="11.00">DAG · reachability · unique names</text>
<text text-anchor="middle" x="215" y="-279.7" font-family="Helvetica,sans-Serif" font-size="11.00">partition_by on replicated joins</text>
</g>
<!-- flowdef&#45;&gt;validate -->
<g id="edge1" class="edge">
<title>flowdef&#45;&gt;validate</title>
<path fill="none" stroke="#52514e" d="M215,-347.44C215,-340.29 215,-331.79 215,-323.75"/>
<polygon fill="#52514e" stroke="#52514e" points="217.45,-323.55 215,-316.55 212.55,-323.55 217.45,-323.55"/>
</g>
<!-- compile -->
<g id="node3" class="node">
<title>compile</title>
<path fill="white" stroke="#2a78d6" stroke-width="1.2" d="M292,-241.5C292,-241.5 138,-241.5 138,-241.5 132,-241.5 126,-235.5 126,-229.5 126,-229.5 126,-197.5 126,-197.5 126,-191.5 132,-185.5 138,-185.5 138,-185.5 292,-185.5 292,-185.5 298,-185.5 304,-191.5 304,-197.5 304,-197.5 304,-229.5 304,-229.5 304,-235.5 298,-241.5 292,-241.5"/>
<text text-anchor="middle" x="215" y="-228.7" font-family="Helvetica,sans-Serif" font-size="11.00">compile_flow()</text>
<text text-anchor="middle" x="215" y="-216.7" font-family="Helvetica,sans-Serif" font-size="11.00">NodeSpec per node:</text>
<text text-anchor="middle" x="215" y="-204.7" font-family="Helvetica,sans-Serif" font-size="11.00">(class FQN, params, parents,</text>
<text text-anchor="middle" x="215" y="-192.7" font-family="Helvetica,sans-Serif" font-size="11.00">nb_tasks, device, image)</text>
</g>
<!-- validate&#45;&gt;compile -->
<g id="edge2" class="edge">
<title>validate&#45;&gt;compile</title>
<path fill="none" stroke="#52514e" d="M215,-272.33C215,-265.12 215,-256.87 215,-248.89"/>
<polygon fill="#52514e" stroke="#52514e" points="217.45,-248.69 215,-241.69 212.55,-248.69 217.45,-248.69"/>
</g>
<!-- w1 -->
<g id="node4" class="node">
<title>w1</title>
<path fill="white" stroke="#008300" stroke-width="1.2" d="M126,-144.5C126,-144.5 12,-144.5 12,-144.5 6,-144.5 0,-138.5 0,-132.5 0,-132.5 0,-112.5 0,-112.5 0,-106.5 6,-100.5 12,-100.5 12,-100.5 126,-100.5 126,-100.5 132,-100.5 138,-106.5 138,-112.5 138,-112.5 138,-132.5 138,-132.5 138,-138.5 132,-144.5 126,-144.5"/>
<text text-anchor="middle" x="69" y="-131.7" font-family="Helvetica,sans-Serif" font-size="11.00">worker: producer</text>
<text text-anchor="middle" x="69" y="-119.7" font-family="Helvetica,sans-Serif" font-size="11.00">type(node)(**params)</text>
<text text-anchor="middle" x="69" y="-107.7" font-family="Helvetica,sans-Serif" font-size="11.00">next()</text>
</g>
<!-- compile&#45;&gt;w1 -->
<g id="edge3" class="edge">
<title>compile&#45;&gt;w1</title>
<path fill="none" stroke="#52514e" stroke-dasharray="5,2" d="M170.4,-185.31C151.11,-173.56 128.69,-159.89 109.85,-148.4"/>
<polygon fill="#52514e" stroke="#52514e" points="110.85,-146.14 103.6,-144.59 108.3,-150.33 110.85,-146.14"/>
</g>
<!-- w2 -->
<g id="node5" class="node">
<title>w2</title>
<path fill="white" stroke="#008300" stroke-width="1.2" d="M281.5,-140.5C281.5,-140.5 168.5,-140.5 168.5,-140.5 162.5,-140.5 156.5,-134.5 156.5,-128.5 156.5,-128.5 156.5,-116.5 156.5,-116.5 156.5,-110.5 162.5,-104.5 168.5,-104.5 168.5,-104.5 281.5,-104.5 281.5,-104.5 287.5,-104.5 293.5,-110.5 293.5,-116.5 293.5,-116.5 293.5,-128.5 293.5,-128.5 293.5,-134.5 287.5,-140.5 281.5,-140.5"/>
<text text-anchor="middle" x="225" y="-125.7" font-family="Helvetica,sans-Serif" font-size="11.00">worker: processor ×N</text>
<text text-anchor="middle" x="225" y="-113.7" font-family="Helvetica,sans-Serif" font-size="11.00">process(*inputs)</text>
</g>
<!-- compile&#45;&gt;w2 -->
<g id="edge4" class="edge">
<title>compile&#45;&gt;w2</title>
<path fill="none" stroke="#52514e" stroke-dasharray="5,2" d="M214.33,-185.45C214.44,-177.1 214.89,-167.89 216,-159.5 216.52,-155.59 217.3,-151.49 218.2,-147.51"/>
<polygon fill="#52514e" stroke="#52514e" points="220.62,-147.94 219.9,-140.56 215.86,-146.78 220.62,-147.94"/>
<text text-anchor="middle" x="286" y="-162.3" font-family="Helvetica,sans-Serif" font-size="9.00"> &#160;VF_* env (subprocess or pod)</text>
</g>
<!-- w3 -->
<g id="node6" class="node">
<title>w3</title>
<path fill="white" stroke="#008300" stroke-width="1.2" d="M416,-140.5C416,-140.5 324,-140.5 324,-140.5 318,-140.5 312,-134.5 312,-128.5 312,-128.5 312,-116.5 312,-116.5 312,-110.5 318,-104.5 324,-104.5 324,-104.5 416,-104.5 416,-104.5 422,-104.5 428,-110.5 428,-116.5 428,-116.5 428,-128.5 428,-128.5 428,-134.5 422,-140.5 416,-140.5"/>
<text text-anchor="middle" x="370" y="-125.7" font-family="Helvetica,sans-Serif" font-size="11.00">worker: consumer</text>
<text text-anchor="middle" x="370" y="-113.7" font-family="Helvetica,sans-Serif" font-size="11.00">consume(item)</text>
</g>
<!-- compile&#45;&gt;w3 -->
<g id="edge5" class="edge">
<title>compile&#45;&gt;w3</title>
<path fill="none" stroke="#52514e" stroke-dasharray="5,2" d="M304.24,-199.52C323.29,-193.13 341.89,-183.62 356,-169.5 361.78,-163.71 365.19,-155.62 367.19,-147.83"/>
<polygon fill="#52514e" stroke="#52514e" points="369.62,-148.19 368.67,-140.83 364.83,-147.18 369.62,-148.19"/>
</g>
<!-- broker -->
<g id="node7" class="node">
<title>broker</title>
<path fill="#fdf3e0" stroke="#eda100" stroke-width="1.4" d="M331.5,-55.21C331.5,-58.27 283.76,-60.75 225,-60.75 166.24,-60.75 118.5,-58.27 118.5,-55.21 118.5,-55.21 118.5,-5.29 118.5,-5.29 118.5,-2.23 166.24,0.25 225,0.25 283.76,0.25 331.5,-2.23 331.5,-5.29 331.5,-5.29 331.5,-55.21 331.5,-55.21"/>
<path fill="none" stroke="#eda100" stroke-width="1.4" d="M331.5,-55.21C331.5,-52.15 283.76,-49.66 225,-49.66 166.24,-49.66 118.5,-52.15 118.5,-55.21"/>
<text text-anchor="middle" x="225" y="-39.45" font-family="Helvetica,sans-Serif" font-size="11.00">NATS JetStream</text>
<text text-anchor="middle" x="225" y="-27.45" font-family="Helvetica,sans-Serif" font-size="11.00">one stream per node</text>
<text text-anchor="middle" x="225" y="-15.45" font-family="Helvetica,sans-Serif" font-size="11.00">subjects scoped by flow_id + run_id</text>
</g>
<!-- w1&#45;&gt;broker -->
<g id="edge6" class="edge">
<title>w1&#45;&gt;broker</title>
<path fill="none" stroke="#52514e" d="M111.71,-96.79C129.06,-86.75 149.37,-75.01 167.96,-64.25"/>
<polygon fill="#52514e" stroke="#52514e" points="110.41,-94.71 105.58,-100.34 112.86,-98.96 110.41,-94.71"/>
<polygon fill="#52514e" stroke="#52514e" points="169.35,-66.27 174.19,-60.65 166.9,-62.03 169.35,-66.27"/>
<text text-anchor="middle" x="167" y="-78.3" font-family="Helvetica,sans-Serif" font-size="9.00">publish &#160;</text>
</g>
<!-- w2&#45;&gt;broker -->
<g id="edge7" class="edge">
<title>w2&#45;&gt;broker</title>
<path fill="none" stroke="#52514e" d="M225,-97.08C225,-88.05 225,-77.6 225,-67.73"/>
<polygon fill="#52514e" stroke="#52514e" points="222.55,-97.1 225,-104.1 227.45,-97.1 222.55,-97.1"/>
<polygon fill="#52514e" stroke="#52514e" points="227.45,-67.68 225,-60.68 222.55,-67.68 227.45,-67.68"/>
<text text-anchor="middle" x="270" y="-78.3" font-family="Helvetica,sans-Serif" font-size="9.00">consume / publish &#160;</text>
</g>
<!-- w3&#45;&gt;broker -->
<g id="edge8" class="edge">
<title>w3&#45;&gt;broker</title>
<path fill="none" stroke="#52514e" d="M348.42,-99.45C339.75,-91.31 329.36,-82.39 319,-75.5 312.79,-71.37 306.14,-67.42 299.34,-63.7"/>
<polygon fill="#52514e" stroke="#52514e" points="346.83,-101.32 353.58,-104.4 350.22,-97.79 346.83,-101.32"/>
<polygon fill="#52514e" stroke="#52514e" points="300.4,-61.49 293.07,-60.35 298.09,-65.81 300.4,-61.49"/>
<text text-anchor="middle" x="367.5" y="-78.3" font-family="Helvetica,sans-Serif" font-size="9.00"> &#160;consume / ack</text>
</g>
</g>
</svg>
