<?xml version="1.0" encoding="UTF-8" standalone="no"?>
<!DOCTYPE svg PUBLIC "-//W3C//DTD SVG 1.1//EN"
 "http://www.w3.org/Graphics/SVG/1.1/DTD/svg11.dtd">
<!-- Generated by graphviz version 2.43.0 (0)
 -->
<!-- Title: expgraphs Pages: 1 -->
<svg width="634pt" height="696pt"
 viewBox="0.00 0.00 634.00 696.00" xmlns="http://www.w3.org/2000/svg" xmlns:xlink="http://www.w3.org/1999/xlink">
<g id="graph0" class="graph" transform="scale(1 1) rotate(0) translate(4 692)">
<title>expgraphs</title>
<polygon fill="white" stroke="transparent" points="-4,4 -4,-692 630,-692 630,4 -4,4"/>
<g id="clust1" class="cluster">
<title>cluster_e8</title>
<path fill="white" stroke="#e1e0d9" d="M49.5,-8C49.5,-8 479,-8 479,-8 485,-8 491,-14 491,-20 491,-20 491,-74 491,-74 491,-80 485,-86 479,-86 479,-86 49.5,-86 49.5,-86 43.5,-86 37.5,-80 37.5,-74 37.5,-74 37.5,-20 37.5,-20 37.5,-14 43.5,-8 49.5,-8"/>
<text text-anchor="middle" x="264.25" y="-73.2" font-family="Helvetica,sans-Serif" font-size="11.00" fill="#0b0b0b">E8 — fault injection</text>
</g>
<g id="clust2" class="cluster">
<title>cluster_e7</title>
<path fill="white" stroke="#e1e0d9" d="M20,-94C20,-94 288.5,-94 288.5,-94 294.5,-94 300.5,-100 300.5,-106 300.5,-106 300.5,-160 300.5,-160 300.5,-166 294.5,-172 288.5,-172 288.5,-172 20,-172 20,-172 14,-172 8,-166 8,-160 8,-160 8,-106 8,-106 8,-100 14,-94 20,-94"/>
<text text-anchor="middle" x="154.25" y="-159.2" font-family="Helvetica,sans-Serif" font-size="11.00" fill="#0b0b0b">E7 — payload placement</text>
</g>
<g id="clust3" class="cluster">
<title>cluster_e6</title>
<path fill="white" stroke="#e1e0d9" d="M35,-180C35,-180 479,-180 479,-180 485,-180 491,-186 491,-192 491,-192 491,-294 491,-294 491,-300 485,-306 479,-306 479,-306 35,-306 35,-306 29,-306 23,-300 23,-294 23,-294 23,-192 23,-192 23,-186 29,-180 35,-180"/>
<text text-anchor="middle" x="257" y="-293.2" font-family="Helvetica,sans-Serif" font-size="11.00" fill="#0b0b0b">E6 — time&#45;aligned quorum join</text>
</g>
<g id="clust4" class="cluster">
<title>cluster_e5</title>
<path fill="white" stroke="#e1e0d9" d="M49.5,-314C49.5,-314 606,-314 606,-314 612,-314 618,-320 618,-326 618,-326 618,-428 618,-428 618,-434 612,-440 606,-440 606,-440 49.5,-440 49.5,-440 43.5,-440 37.5,-434 37.5,-428 37.5,-428 37.5,-326 37.5,-326 37.5,-320 43.5,-314 49.5,-314"/>
<text text-anchor="middle" x="327.75" y="-427.2" font-family="Helvetica,sans-Serif" font-size="11.00" fill="#0b0b0b">E5 — partitioned join (diamond)</text>
</g>
<g id="clust5" class="cluster">
<title>cluster_e4</title>
<path fill="white" stroke="#e1e0d9" d="M48,-448C48,-448 479,-448 479,-448 485,-448 491,-454 491,-460 491,-460 491,-508 491,-508 491,-514 485,-520 479,-520 479,-520 48,-520 48,-520 42,-520 36,-514 36,-508 36,-508 36,-460 36,-460 36,-454 42,-448 48,-448"/>
<text text-anchor="middle" x="263.5" y="-507.2" font-family="Helvetica,sans-Serif" font-size="11.00" fill="#0b0b0b">E4 — overload (BATCH vs REALTIME)</text>
</g>
<g id="clust6" class="cluster">
<title>cluster_e3</title>
<path fill="white" stroke="#e1e0d9" d="M51,-528C51,-528 606,-528 606,-528 612,-528 618,-534 618,-540 618,-540 618,-588 618,-588 618,-594 612,-600 606,-600 606,-600 51,-600 51,-600 45,-600 39,-594 39,-588 39,-588 39,-540 39,-540 39,-534 45,-528 51,-528"/>
<text text-anchor="middle" x="328.5" y="-587.2" font-family="Helvetica,sans-Serif" font-size="11.00" fill="#0b0b0b">E3 — pipeline depth</text>
</g>
<g id="clust7" class="cluster">
<title>cluster_e2</title>
<path fill="white" stroke="#e1e0d9" d="M49.5,-608C49.5,-608 479,-608 479,-608 485,-608 491,-614 491,-620 491,-620 491,-668 491,-668 491,-674 485,-680 479,-680 479,-680 49.5,-680 49.5,-680 43.5,-680 37.5,-674 37.5,-668 37.5,-668 37.5,-620 37.5,-620 37.5,-614 43.5,-608 49.5,-608"/>
<text text-anchor="middle" x="264.25" y="-667.2" font-family="Helvetica,sans-Serif" font-size="11.00" fill="#0b0b0b">E2 — horizontal scaling</text>
</g>
<!-- e8p -->
<g id="node1" class="node">
<title>e8p</title>
<path fill="#eaf2fc" stroke="#2a78d6" stroke-width="1.2" d="M97.5,-55C97.5,-55 57.5,-55 57.5,-55 51.5,-55 45.5,-49 45.5,-43 45.5,-43 45.5,-31 45.5,-31 45.5,-25 51.5,-19 57.5,-19 57.5,-19 97.5,-19 97.5,-19 103.5,-19 109.5,-25 109.5,-31 109.5,-31 109.5,-43 109.5,-43 109.5,-49 103.5,-55 97.5,-55"/>
<text text-anchor="middle" x="77.5" y="-40" font-family="Helvetica,sans-Serif" font-size="10.00">producer</text>
<text text-anchor="middle" x="77.5" y="-29" font-family="Helvetica,sans-Serif" font-size="10.00">240 msgs</text>
</g>
<!-- e8w -->
<g id="node2" class="node">
<title>e8w</title>
<path fill="white" stroke="#008300" stroke-width="1.2" d="M344,-57.5C344,-57.5 187,-57.5 187,-57.5 181,-57.5 175,-51.5 175,-45.5 175,-45.5 175,-28.5 175,-28.5 175,-22.5 181,-16.5 187,-16.5 187,-16.5 344,-16.5 344,-16.5 350,-16.5 356,-22.5 356,-28.5 356,-28.5 356,-45.5 356,-45.5 356,-51.5 350,-57.5 344,-57.5"/>
<text text-anchor="middle" x="265.5" y="-45.5" font-family="Helvetica,sans-Serif" font-size="10.00">stage 20 ms</text>
<text text-anchor="middle" x="265.5" y="-34.5" font-family="Helvetica,sans-Serif" font-size="10.00">nb_tasks = 2</text>
<text text-anchor="middle" x="265.5" y="-23.5" font-family="Helvetica,sans-Serif" font-size="10.00">(one replica SIGKILLed at t≈2.5 s)</text>
</g>
<!-- e8p&#45;&gt;e8w -->
<g id="edge1" class="edge">
<title>e8p&#45;&gt;e8w</title>
<path fill="none" stroke="#52514e" d="M109.63,-37C125.8,-37 146.53,-37 167.53,-37"/>
<polygon fill="#52514e" stroke="#52514e" points="167.66,-39.45 174.66,-37 167.66,-34.55 167.66,-39.45"/>
</g>
<!-- e8s -->
<g id="node3" class="node">
<title>e8s</title>
<path fill="white" stroke="#e87ba4" stroke-width="1.2" d="M471,-55C471,-55 441,-55 441,-55 435,-55 429,-49 429,-43 429,-43 429,-31 429,-31 429,-25 435,-19 441,-19 441,-19 471,-19 471,-19 477,-19 483,-25 483,-31 483,-31 483,-43 483,-43 483,-49 477,-55 471,-55"/>
<text text-anchor="middle" x="456" y="-34.5" font-family="Helvetica,sans-Serif" font-size="10.00">sink</text>
</g>
<!-- e8w&#45;&gt;e8s -->
<g id="edge2" class="edge">
<title>e8w&#45;&gt;e8s</title>
<path fill="none" stroke="#52514e" d="M356.06,-37C379.54,-37 403.41,-37 421.82,-37"/>
<polygon fill="#52514e" stroke="#52514e" points="421.85,-39.45 428.85,-37 421.85,-34.55 421.85,-39.45"/>
</g>
<!-- e7p -->
<g id="node4" class="node">
<title>e7p</title>
<path fill="#eaf2fc" stroke="#2a78d6" stroke-width="1.2" d="M127,-143.5C127,-143.5 28,-143.5 28,-143.5 22,-143.5 16,-137.5 16,-131.5 16,-131.5 16,-114.5 16,-114.5 16,-108.5 22,-102.5 28,-102.5 28,-102.5 127,-102.5 127,-102.5 133,-102.5 139,-108.5 139,-114.5 139,-114.5 139,-131.5 139,-131.5 139,-137.5 133,-143.5 127,-143.5"/>
<text text-anchor="middle" x="77.5" y="-131.5" font-family="Helvetica,sans-Serif" font-size="10.00">producer</text>
<text text-anchor="middle" x="77.5" y="-120.5" font-family="Helvetica,sans-Serif" font-size="10.00">payload 1 KiB – 6 MiB</text>
<text text-anchor="middle" x="77.5" y="-109.5" font-family="Helvetica,sans-Serif" font-size="10.00">inline / blob / auto</text>
</g>
<!-- e7s -->
<g id="node5" class="node">
<title>e7s</title>
<path fill="white" stroke="#e87ba4" stroke-width="1.2" d="M280.5,-141C280.5,-141 250.5,-141 250.5,-141 244.5,-141 238.5,-135 238.5,-129 238.5,-129 238.5,-117 238.5,-117 238.5,-111 244.5,-105 250.5,-105 250.5,-105 280.5,-105 280.5,-105 286.5,-105 292.5,-111 292.5,-117 292.5,-117 292.5,-129 292.5,-129 292.5,-135 286.5,-141 280.5,-141"/>
<text text-anchor="middle" x="265.5" y="-120.5" font-family="Helvetica,sans-Serif" font-size="10.00">sink</text>
</g>
<!-- e7p&#45;&gt;e7s -->
<g id="edge3" class="edge">
<title>e7p&#45;&gt;e7s</title>
<path fill="none" stroke="#52514e" d="M139.15,-123C169.64,-123 205.43,-123 230.94,-123"/>
<polygon fill="#52514e" stroke="#52514e" points="231.18,-125.45 238.18,-123 231.18,-120.55 231.18,-125.45"/>
</g>
<!-- e6a -->
<g id="node6" class="node">
<title>e6a</title>
<path fill="#eaf2fc" stroke="#2a78d6" stroke-width="1.2" d="M106.5,-278C106.5,-278 48.5,-278 48.5,-278 42.5,-278 36.5,-272 36.5,-266 36.5,-266 36.5,-254 36.5,-254 36.5,-248 42.5,-242 48.5,-242 48.5,-242 106.5,-242 106.5,-242 112.5,-242 118.5,-248 118.5,-254 118.5,-254 118.5,-266 118.5,-266 118.5,-272 112.5,-278 106.5,-278"/>
<text text-anchor="middle" x="77.5" y="-257.5" font-family="Helvetica,sans-Serif" font-size="10.00">cam_a 50 fps</text>
</g>
<!-- e6f -->
<g id="node8" class="node">
<title>e6f</title>
<path fill="white" stroke="#008300" stroke-width="1.2" d="M326.5,-253.5C326.5,-253.5 204.5,-253.5 204.5,-253.5 198.5,-253.5 192.5,-247.5 192.5,-241.5 192.5,-241.5 192.5,-224.5 192.5,-224.5 192.5,-218.5 198.5,-212.5 204.5,-212.5 204.5,-212.5 326.5,-212.5 326.5,-212.5 332.5,-212.5 338.5,-218.5 338.5,-224.5 338.5,-224.5 338.5,-241.5 338.5,-241.5 338.5,-247.5 332.5,-253.5 326.5,-253.5"/>
<text text-anchor="middle" x="265.5" y="-241.5" font-family="Helvetica,sans-Serif" font-size="10.00">fuse</text>
<text text-anchor="middle" x="265.5" y="-230.5" font-family="Helvetica,sans-Serif" font-size="10.00">mode=time, tol 12 ms</text>
<text text-anchor="middle" x="265.5" y="-219.5" font-family="Helvetica,sans-Serif" font-size="10.00">quorum 1, timeout 250 ms</text>
</g>
<!-- e6a&#45;&gt;e6f -->
<g id="edge4" class="edge">
<title>e6a&#45;&gt;e6f</title>
<path fill="none" stroke="#52514e" d="M118.86,-254.14C138.32,-251.32 162.37,-247.83 185.28,-244.5"/>
<polygon fill="#52514e" stroke="#52514e" points="185.77,-246.9 192.34,-243.47 185.06,-242.06 185.77,-246.9"/>
</g>
<!-- e6b -->
<g id="node7" class="node">
<title>e6b</title>
<path fill="#eaf2fc" stroke="#2a78d6" stroke-width="1.2" d="M112,-224C112,-224 43,-224 43,-224 37,-224 31,-218 31,-212 31,-212 31,-200 31,-200 31,-194 37,-188 43,-188 43,-188 112,-188 112,-188 118,-188 124,-194 124,-200 124,-200 124,-212 124,-212 124,-218 118,-224 112,-224"/>
<text text-anchor="middle" x="77.5" y="-209" font-family="Helvetica,sans-Serif" font-size="10.00">cam_b 50 fps</text>
<text text-anchor="middle" x="77.5" y="-198" font-family="Helvetica,sans-Serif" font-size="10.00">drops every 3rd</text>
</g>
<!-- e6b&#45;&gt;e6f -->
<g id="edge5" class="edge">
<title>e6b&#45;&gt;e6f</title>
<path fill="none" stroke="#52514e" d="M124,-212.6C142.46,-215.28 164.32,-218.46 185.24,-221.49"/>
<polygon fill="#52514e" stroke="#52514e" points="185.01,-223.94 192.29,-222.52 185.72,-219.09 185.01,-223.94"/>
</g>
<!-- e6s -->
<g id="node9" class="node">
<title>e6s</title>
<path fill="white" stroke="#e87ba4" stroke-width="1.2" d="M471,-251C471,-251 441,-251 441,-251 435,-251 429,-245 429,-239 429,-239 429,-227 429,-227 429,-221 435,-215 441,-215 441,-215 471,-215 471,-215 477,-215 483,-221 483,-227 483,-227 483,-239 483,-239 483,-245 477,-251 471,-251"/>
<text text-anchor="middle" x="456" y="-230.5" font-family="Helvetica,sans-Serif" font-size="10.00">sink</text>
</g>
<!-- e6f&#45;&gt;e6s -->
<g id="edge6" class="edge">
<title>e6f&#45;&gt;e6s</title>
<path fill="none" stroke="#52514e" d="M338.57,-233C367.08,-233 398.46,-233 421.45,-233"/>
<polygon fill="#52514e" stroke="#52514e" points="421.61,-235.45 428.61,-233 421.61,-230.55 421.61,-235.45"/>
</g>
<!-- e5p -->
<g id="node10" class="node">
<title>e5p</title>
<path fill="#eaf2fc" stroke="#2a78d6" stroke-width="1.2" d="M97.5,-385C97.5,-385 57.5,-385 57.5,-385 51.5,-385 45.5,-379 45.5,-373 45.5,-373 45.5,-361 45.5,-361 45.5,-355 51.5,-349 57.5,-349 57.5,-349 97.5,-349 97.5,-349 103.5,-349 109.5,-355 109.5,-361 109.5,-361 109.5,-373 109.5,-373 109.5,-379 103.5,-385 97.5,-385"/>
<text text-anchor="middle" x="77.5" y="-370" font-family="Helvetica,sans-Serif" font-size="10.00">producer</text>
<text text-anchor="middle" x="77.5" y="-359" font-family="Helvetica,sans-Serif" font-size="10.00">240 msgs</text>
</g>
<!-- e5l -->
<g id="node11" class="node">
<title>e5l</title>
<path fill="white" stroke="#008300" stroke-width="1.2" d="M283,-358C283,-358 248,-358 248,-358 242,-358 236,-352 236,-346 236,-346 236,-334 236,-334 236,-328 242,-322 248,-322 248,-322 283,-322 283,-322 289,-322 295,-328 295,-334 295,-334 295,-346 295,-346 295,-352 289,-358 283,-358"/>
<text text-anchor="middle" x="265.5" y="-337.5" font-family="Helvetica,sans-Serif" font-size="10.00">left 5 ms</text>
</g>
<!-- e5p&#45;&gt;e5l -->
<g id="edge7" class="edge">
<title>e5p&#45;&gt;e5l</title>
<path fill="none" stroke="#52514e" d="M109.63,-362.48C142.46,-357.72 194.11,-350.22 228.62,-345.21"/>
<polygon fill="#52514e" stroke="#52514e" points="229.14,-347.61 235.71,-344.18 228.44,-342.76 229.14,-347.61"/>
</g>
<!-- e5r -->
<g id="node12" class="node">
<title>e5r</title>
<path fill="white" stroke="#008300" stroke-width="1.2" d="M286.5,-412C286.5,-412 244.5,-412 244.5,-412 238.5,-412 232.5,-406 232.5,-400 232.5,-400 232.5,-388 232.5,-388 232.5,-382 238.5,-376 244.5,-376 244.5,-376 286.5,-376 286.5,-376 292.5,-376 298.5,-382 298.5,-388 298.5,-388 298.5,-400 298.5,-400 298.5,-406 292.5,-412 286.5,-412"/>
<text text-anchor="middle" x="265.5" y="-391.5" font-family="Helvetica,sans-Serif" font-size="10.00">right 5 ms</text>
</g>
<!-- e5p&#45;&gt;e5r -->
<g id="edge9" class="edge">
<title>e5p&#45;&gt;e5r</title>
<path fill="none" stroke="#52514e" d="M109.63,-371.52C141.4,-376.13 190.79,-383.3 225.22,-388.3"/>
<polygon fill="#52514e" stroke="#52514e" points="225.05,-390.75 232.33,-389.33 225.75,-385.9 225.05,-390.75"/>
</g>
<!-- e5j -->
<g id="node13" class="node">
<title>e5j</title>
<path fill="white" stroke="#008300" stroke-width="1.2" d="M508,-387.5C508,-387.5 404,-387.5 404,-387.5 398,-387.5 392,-381.5 392,-375.5 392,-375.5 392,-358.5 392,-358.5 392,-352.5 398,-346.5 404,-346.5 404,-346.5 508,-346.5 508,-346.5 514,-346.5 520,-352.5 520,-358.5 520,-358.5 520,-375.5 520,-375.5 520,-381.5 514,-387.5 508,-387.5"/>
<text text-anchor="middle" x="456" y="-375.5" font-family="Helvetica,sans-Serif" font-size="10.00">joiner 20 ms</text>
<text text-anchor="middle" x="456" y="-364.5" font-family="Helvetica,sans-Serif" font-size="10.00">nb_tasks ∈ {1,2,4}</text>
<text text-anchor="middle" x="456" y="-353.5" font-family="Helvetica,sans-Serif" font-size="10.00">partition_by = trace_id</text>
</g>
<!-- e5l&#45;&gt;e5j -->
<g id="edge8" class="edge">
<title>e5l&#45;&gt;e5j</title>
<path fill="none" stroke="#52514e" d="M295.13,-344.1C318.88,-347.5 353.65,-352.48 384.71,-356.93"/>
<polygon fill="#52514e" stroke="#52514e" points="384.41,-359.36 391.69,-357.93 385.11,-354.51 384.41,-359.36"/>
</g>
<!-- e5r&#45;&gt;e5j -->
<g id="edge10" class="edge">
<title>e5r&#45;&gt;e5j</title>
<path fill="none" stroke="#52514e" d="M298.9,-389.36C322.49,-385.98 355.32,-381.28 384.79,-377.06"/>
<polygon fill="#52514e" stroke="#52514e" points="385.23,-379.47 391.81,-376.05 384.53,-374.62 385.23,-379.47"/>
</g>
<!-- e5s -->
<g id="node14" class="node">
<title>e5s</title>
<path fill="white" stroke="#e87ba4" stroke-width="1.2" d="M598,-385C598,-385 568,-385 568,-385 562,-385 556,-379 556,-373 556,-373 556,-361 556,-361 556,-355 562,-349 568,-349 568,-349 598,-349 598,-349 604,-349 610,-355 610,-361 610,-361 610,-373 610,-373 610,-379 604,-385 598,-385"/>
<text text-anchor="middle" x="583" y="-364.5" font-family="Helvetica,sans-Serif" font-size="10.00">sink</text>
</g>
<!-- e5j&#45;&gt;e5s -->
<g id="edge11" class="edge">
<title>e5j&#45;&gt;e5s</title>
<path fill="none" stroke="#52514e" d="M520.23,-367C530.07,-367 539.89,-367 548.7,-367"/>
<polygon fill="#52514e" stroke="#52514e" points="548.85,-369.45 555.85,-367 548.85,-364.55 548.85,-369.45"/>
</g>
<!-- e4p -->
<g id="node15" class="node">
<title>e4p</title>
<path fill="#eaf2fc" stroke="#2a78d6" stroke-width="1.2" d="M99,-492C99,-492 56,-492 56,-492 50,-492 44,-486 44,-480 44,-480 44,-468 44,-468 44,-462 50,-456 56,-456 56,-456 99,-456 99,-456 105,-456 111,-462 111,-468 111,-468 111,-480 111,-480 111,-486 105,-492 99,-492"/>
<text text-anchor="middle" x="77.5" y="-477" font-family="Helvetica,sans-Serif" font-size="10.00">producer</text>
<text text-anchor="middle" x="77.5" y="-466" font-family="Helvetica,sans-Serif" font-size="10.00">100 msg/s</text>
</g>
<!-- e4w -->
<g id="node16" class="node">
<title>e4w</title>
<path fill="white" stroke="#008300" stroke-width="1.2" d="M310,-492C310,-492 221,-492 221,-492 215,-492 209,-486 209,-480 209,-480 209,-468 209,-468 209,-462 215,-456 221,-456 221,-456 310,-456 310,-456 316,-456 322,-462 322,-468 322,-468 322,-480 322,-480 322,-486 316,-492 310,-492"/>
<text text-anchor="middle" x="265.5" y="-477" font-family="Helvetica,sans-Serif" font-size="10.00">stage 25 ms</text>
<text text-anchor="middle" x="265.5" y="-466" font-family="Helvetica,sans-Serif" font-size="10.00">(40 msg/s capacity)</text>
</g>
<!-- e4p&#45;&gt;e4w -->
<g id="edge12" class="edge">
<title>e4p&#45;&gt;e4w</title>
<path fill="none" stroke="#52514e" d="M111.32,-474C136.23,-474 171.24,-474 201.5,-474"/>
<polygon fill="#52514e" stroke="#52514e" points="201.68,-476.45 208.68,-474 201.68,-471.55 201.68,-476.45"/>
</g>
<!-- e4s -->
<g id="node17" class="node">
<title>e4s</title>
<path fill="white" stroke="#e87ba4" stroke-width="1.2" d="M471,-492C471,-492 441,-492 441,-492 435,-492 429,-486 429,-480 429,-480 429,-468 429,-468 429,-462 435,-456 441,-456 441,-456 471,-456 471,-456 477,-456 483,-462 483,-468 483,-468 483,-480 483,-480 483,-486 477,-492 471,-492"/>
<text text-anchor="middle" x="456" y="-471.5" font-family="Helvetica,sans-Serif" font-size="10.00">sink</text>
</g>
<!-- e4w&#45;&gt;e4s -->
<g id="edge13" class="edge">
<title>e4w&#45;&gt;e4s</title>
<path fill="none" stroke="#52514e" d="M322.04,-474C354.44,-474 394.22,-474 421.79,-474"/>
<polygon fill="#52514e" stroke="#52514e" points="421.87,-476.45 428.87,-474 421.87,-471.55 421.87,-476.45"/>
</g>
<!-- e3p -->
<g id="node18" class="node">
<title>e3p</title>
<path fill="#eaf2fc" stroke="#2a78d6" stroke-width="1.2" d="M96,-572C96,-572 59,-572 59,-572 53,-572 47,-566 47,-560 47,-560 47,-548 47,-548 47,-542 53,-536 59,-536 59,-536 96,-536 96,-536 102,-536 108,-542 108,-548 108,-548 108,-560 108,-560 108,-566 102,-572 96,-572"/>
<text text-anchor="middle" x="77.5" y="-557" font-family="Helvetica,sans-Serif" font-size="10.00">producer</text>
<text text-anchor="middle" x="77.5" y="-546" font-family="Helvetica,sans-Serif" font-size="10.00">50 msg/s</text>
</g>
<!-- e3h1 -->
<g id="node19" class="node">
<title>e3h1</title>
<path fill="white" stroke="#008300" stroke-width="1.2" d="M280.5,-572C280.5,-572 250.5,-572 250.5,-572 244.5,-572 238.5,-566 238.5,-560 238.5,-560 238.5,-548 238.5,-548 238.5,-542 244.5,-536 250.5,-536 250.5,-536 280.5,-536 280.5,-536 286.5,-536 292.5,-542 292.5,-548 292.5,-548 292.5,-560 292.5,-560 292.5,-566 286.5,-572 280.5,-572"/>
<text text-anchor="middle" x="265.5" y="-551.5" font-family="Helvetica,sans-Serif" font-size="10.00">hop 1</text>
</g>
<!-- e3p&#45;&gt;e3h1 -->
<g id="edge14" class="edge">
<title>e3p&#45;&gt;e3h1</title>
<path fill="none" stroke="#52514e" d="M108.38,-554C141.94,-554 196.25,-554 231.16,-554"/>
<polygon fill="#52514e" stroke="#52514e" points="231.3,-556.45 238.3,-554 231.3,-551.55 231.3,-556.45"/>
</g>
<!-- e3hd -->
<g id="node20" class="node">
<title>e3hd</title>
<path fill="white" stroke="#008300" stroke-width="1.2" d="M486,-572C486,-572 426,-572 426,-572 420,-572 414,-566 414,-560 414,-560 414,-548 414,-548 414,-542 420,-536 426,-536 426,-536 486,-536 486,-536 492,-536 498,-542 498,-548 498,-548 498,-560 498,-560 498,-566 492,-572 486,-572"/>
<text text-anchor="middle" x="456" y="-557" font-family="Helvetica,sans-Serif" font-size="10.00">… hop D</text>
<text text-anchor="middle" x="456" y="-546" font-family="Helvetica,sans-Serif" font-size="10.00">D ∈ {1,2,4,8}</text>
</g>
<!-- e3h1&#45;&gt;e3hd -->
<g id="edge15" class="edge">
<title>e3h1&#45;&gt;e3hd</title>
<path fill="none" stroke="#52514e" d="M292.71,-554C322.11,-554 370.42,-554 406.71,-554"/>
<polygon fill="#52514e" stroke="#52514e" points="406.79,-556.45 413.79,-554 406.79,-551.55 406.79,-556.45"/>
</g>
<!-- e3s -->
<g id="node21" class="node">
<title>e3s</title>
<path fill="white" stroke="#e87ba4" stroke-width="1.2" d="M598,-572C598,-572 568,-572 568,-572 562,-572 556,-566 556,-560 556,-560 556,-548 556,-548 556,-542 562,-536 568,-536 568,-536 598,-536 598,-536 604,-536 610,-542 610,-548 610,-548 610,-560 610,-560 610,-566 604,-572 598,-572"/>
<text text-anchor="middle" x="583" y="-551.5" font-family="Helvetica,sans-Serif" font-size="10.00">sink</text>
</g>
<!-- e3hd&#45;&gt;e3s -->
<g id="edge16" class="edge">
<title>e3hd&#45;&gt;e3s</title>
<path fill="none" stroke="#52514e" d="M498.28,-554C514.53,-554 532.96,-554 548.38,-554"/>
<polygon fill="#52514e" stroke="#52514e" points="548.69,-556.45 555.69,-554 548.69,-551.55 548.69,-556.45"/>
</g>
<!-- e2p -->
<g id="node22" class="node">
<title>e2p</title>
<path fill="#eaf2fc" stroke="#2a78d6" stroke-width="1.2" d="M97.5,-652C97.5,-652 57.5,-652 57.5,-652 51.5,-652 45.5,-646 45.5,-640 45.5,-640 45.5,-628 45.5,-628 45.5,-622 51.5,-616 57.5,-616 57.5,-616 97.5,-616 97.5,-616 103.5,-616 109.5,-622 109.5,-628 109.5,-628 109.5,-640 109.5,-640 109.5,-646 103.5,-652 97.5,-652"/>
<text text-anchor="middle" x="77.5" y="-637" font-family="Helvetica,sans-Serif" font-size="10.00">producer</text>
<text text-anchor="middle" x="77.5" y="-626" font-family="Helvetica,sans-Serif" font-size="10.00">240 msgs</text>
</g>
<!-- e2w -->
<g id="node23" class="node">
<title>e2w</title>
<path fill="white" stroke="#008300" stroke-width="1.2" d="M313.5,-652C313.5,-652 217.5,-652 217.5,-652 211.5,-652 205.5,-646 205.5,-640 205.5,-640 205.5,-628 205.5,-628 205.5,-622 211.5,-616 217.5,-616 217.5,-616 313.5,-616 313.5,-616 319.5,-616 325.5,-622 325.5,-628 325.5,-628 325.5,-640 325.5,-640 325.5,-646 319.5,-652 313.5,-652"/>
<text text-anchor="middle" x="265.5" y="-637" font-family="Helvetica,sans-Serif" font-size="10.00">stage 20 ms</text>
<text text-anchor="middle" x="265.5" y="-626" font-family="Helvetica,sans-Serif" font-size="10.00">nb_tasks ∈ {1,2,4,8}</text>
</g>
<!-- e2p&#45;&gt;e2w -->
<g id="edge17" class="edge">
<title>e2p&#45;&gt;e2w</title>
<path fill="none" stroke="#52514e" d="M109.63,-634C133.76,-634 168.05,-634 198.24,-634"/>
<polygon fill="#52514e" stroke="#52514e" points="198.41,-636.45 205.41,-634 198.41,-631.55 198.41,-636.45"/>
</g>
<!-- e2s -->
<g id="node24" class="node">
<title>e2s</title>
<path fill="white" stroke="#e87ba4" stroke-width="1.2" d="M471,-652C471,-652 441,-652 441,-652 435,-652 429,-646 429,-640 429,-640 429,-628 429,-628 429,-622 435,-616 441,-616 441,-616 471,-616 471,-616 477,-616 483,-622 483,-628 483,-628 483,-640 483,-640 483,-646 477,-652 471,-652"/>
<text text-anchor="middle" x="456" y="-631.5" font-family="Helvetica,sans-Serif" font-size="10.00">sink</text>
</g>
<!-- e2w&#45;&gt;e2s -->
<g id="edge18" class="edge">
<title>e2w&#45;&gt;e2s</title>
<path fill="none" stroke="#52514e" d="M325.63,-634C357.21,-634 394.93,-634 421.47,-634"/>
<polygon fill="#52514e" stroke="#52514e" points="421.64,-636.45 428.64,-634 421.64,-631.55 421.64,-636.45"/>
</g>
</g>
</svg>
