<?xml version="1.0" encoding="UTF-8" standalone="no"?>
<!DOCTYPE svg PUBLIC "-//W3C//DTD SVG 1.1//EN"
 "http://www.w3.org/Graphics/SVG/1.1/DTD/svg11.dtd">
<!-- Generated by graphviz version 2.43.0 (0)
 -->
<!-- Title: expgraphs Pages: 1 -->
<svg width="569pt" height="524pt"
 viewBox="0.00 0.00 569.00 524.00" xmlns="http://www.w3.org/2000/svg" xmlns:xlink="http://www.w3.org/1999/xlink">
<g id="graph0" class="graph" transform="scale(1 1) rotate(0) translate(4 520)">
<title>expgraphs</title>
<polygon fill="white" stroke="transparent" points="-4,4 -4,-520 565,-520 565,4 -4,4"/>
<g id="clust1" class="cluster">
<title>cluster_e6</title>
<path fill="white" stroke="#e1e0d9" d="M20,-8C20,-8 414,-8 414,-8 420,-8 426,-14 426,-20 426,-20 426,-122 426,-122 426,-128 420,-134 414,-134 414,-134 20,-134 20,-134 14,-134 8,-128 8,-122 8,-122 8,-20 8,-20 8,-14 14,-8 20,-8"/>
<text text-anchor="middle" x="217" y="-121.2" font-family="Helvetica,sans-Serif" font-size="11.00" fill="#0b0b0b">E6 — time&#45;aligned quorum join</text>
</g>
<g id="clust2" class="cluster">
<title>cluster_e5</title>
<path fill="white" stroke="#e1e0d9" d="M34.5,-142C34.5,-142 541,-142 541,-142 547,-142 553,-148 553,-154 553,-154 553,-256 553,-256 553,-262 547,-268 541,-268 541,-268 34.5,-268 34.5,-268 28.5,-268 22.5,-262 22.5,-256 22.5,-256 22.5,-154 22.5,-154 22.5,-148 28.5,-142 34.5,-142"/>
<text text-anchor="middle" x="287.75" y="-255.2" font-family="Helvetica,sans-Serif" font-size="11.00" fill="#0b0b0b">E5 — partitioned join (diamond)</text>
</g>
<g id="clust3" class="cluster">
<title>cluster_e4</title>
<path fill="white" stroke="#e1e0d9" d="M33,-276C33,-276 414,-276 414,-276 420,-276 426,-282 426,-288 426,-288 426,-336 426,-336 426,-342 420,-348 414,-348 414,-348 33,-348 33,-348 27,-348 21,-342 21,-336 21,-336 21,-288 21,-288 21,-282 27,-276 33,-276"/>
<text text-anchor="middle" x="223.5" y="-335.2" font-family="Helvetica,sans-Serif" font-size="11.00" fill="#0b0b0b">E4 — overload (BATCH vs REALTIME)</text>
</g>
<g id="clust4" class="cluster">
<title>cluster_e3</title>
<path fill="white" stroke="#e1e0d9" d="M36,-356C36,-356 541,-356 541,-356 547,-356 553,-362 553,-368 553,-368 553,-416 553,-416 553,-422 547,-428 541,-428 541,-428 36,-428 36,-428 30,-428 24,-422 24,-416 24,-416 24,-368 24,-368 24,-362 30,-356 36,-356"/>
<text text-anchor="middle" x="288.5" y="-415.2" font-family="Helvetica,sans-Serif" font-size="11.00" fill="#0b0b0b">E3 — pipeline depth</text>
</g>
<g id="clust5" class="cluster">
<title>cluster_e2</title>
<path fill="white" stroke="#e1e0d9" d="M34.5,-436C34.5,-436 414,-436 414,-436 420,-436 426,-442 426,-448 426,-448 426,-496 426,-496 426,-502 420,-508 414,-508 414,-508 34.5,-508 34.5,-508 28.5,-508 22.5,-502 22.5,-496 22.5,-496 22.5,-448 22.5,-448 22.5,-442 28.5,-436 34.5,-436"/>
<text text-anchor="middle" x="224.25" y="-495.2" font-family="Helvetica,sans-Serif" font-size="11.00" fill="#0b0b0b">E2 — horizontal scaling</text>
</g>
<!-- e6a -->
<g id="node1" class="node">
<title>e6a</title>
<path fill="#eaf2fc" stroke="#2a78d6" stroke-width="1.2" d="M91.5,-106C91.5,-106 33.5,-106 33.5,-106 27.5,-106 21.5,-100 21.5,-94 21.5,-94 21.5,-82 21.5,-82 21.5,-76 27.5,-70 33.5,-70 33.5,-70 91.5,-70 91.5,-70 97.5,-70 103.5,-76 103.5,-82 103.5,-82 103.5,-94 103.5,-94 103.5,-100 97.5,-106 91.5,-106"/>
<text text-anchor="middle" x="62.5" y="-85.5" font-family="Helvetica,sans-Serif" font-size="10.00">cam_a 50 fps</text>
</g>
<!-- e6f -->
<g id="node3" class="node">
<title>e6f</title>
<path fill="white" stroke="#008300" stroke-width="1.2" d="M279,-81.5C279,-81.5 157,-81.5 157,-81.5 151,-81.5 145,-75.5 145,-69.5 145,-69.5 145,-52.5 145,-52.5 145,-46.5 151,-40.5 157,-40.5 157,-40.5 279,-40.5 279,-40.5 285,-40.5 291,-46.5 291,-52.5 291,-52.5 291,-69.5 291,-69.5 291,-75.5 285,-81.5 279,-81.5"/>
<text text-anchor="middle" x="218" y="-69.5" font-family="Helvetica,sans-Serif" font-size="10.00">fuse</text>
<text text-anchor="middle" x="218" y="-58.5" font-family="Helvetica,sans-Serif" font-size="10.00">mode=time, tol 12 ms</text>
<text text-anchor="middle" x="218" y="-47.5" font-family="Helvetica,sans-Serif" font-size="10.00">quorum 1, timeout 250 ms</text>
</g>
<!-- e6a&#45;&gt;e6f -->
<g id="edge1" class="edge">
<title>e6a&#45;&gt;e6f</title>
<path fill="none" stroke="#52514e" d="M103.83,-80.91C114.37,-79.05 126.11,-76.99 137.92,-74.91"/>
<polygon fill="#52514e" stroke="#52514e" points="138.41,-77.31 144.88,-73.69 137.56,-72.49 138.41,-77.31"/>
</g>
<!-- e6b -->
<g id="node2" class="node">
<title>e6b</title>
<path fill="#eaf2fc" stroke="#2a78d6" stroke-width="1.2" d="M97,-52C97,-52 28,-52 28,-52 22,-52 16,-46 16,-40 16,-40 16,-28 16,-28 16,-22 22,-16 28,-16 28,-16 97,-16 97,-16 103,-16 109,-22 109,-28 109,-28 109,-40 109,-40 109,-46 103,-52 97,-52"/>
<text text-anchor="middle" x="62.5" y="-37" font-family="Helvetica,sans-Serif" font-size="10.00">cam_b 50 fps</text>
<text text-anchor="middle" x="62.5" y="-26" font-family="Helvetica,sans-Serif" font-size="10.00">drops every 3rd</text>
</g>
<!-- e6b&#45;&gt;e6f -->
<g id="edge2" class="edge">
<title>e6b&#45;&gt;e6f</title>
<path fill="none" stroke="#52514e" d="M109.14,-42.03C118.17,-43.62 127.89,-45.33 137.67,-47.05"/>
<polygon fill="#52514e" stroke="#52514e" points="137.48,-49.5 144.79,-48.3 138.33,-44.67 137.48,-49.5"/>
</g>
<!-- e6s -->
<g id="node4" class="node">
<title>e6s</title>
<path fill="white" stroke="#e87ba4" stroke-width="1.2" d="M406,-79C406,-79 376,-79 376,-79 370,-79 364,-73 364,-67 364,-67 364,-55 364,-55 364,-49 370,-43 376,-43 376,-43 406,-43 406,-43 412,-43 418,-49 418,-55 418,-55 418,-67 418,-67 418,-73 412,-79 406,-79"/>
<text text-anchor="middle" x="391" y="-58.5" font-family="Helvetica,sans-Serif" font-size="10.00">sink</text>
</g>
<!-- e6f&#45;&gt;e6s -->
<g id="edge3" class="edge">
<title>e6f&#45;&gt;e6s</title>
<path fill="none" stroke="#52514e" d="M291.02,-61C313.75,-61 337.77,-61 356.46,-61"/>
<polygon fill="#52514e" stroke="#52514e" points="356.61,-63.45 363.61,-61 356.61,-58.55 356.61,-63.45"/>
</g>
<!-- e5p -->
<g id="node5" class="node">
<title>e5p</title>
<path fill="#eaf2fc" stroke="#2a78d6" stroke-width="1.2" d="M82.5,-213C82.5,-213 42.5,-213 42.5,-213 36.5,-213 30.5,-207 30.5,-201 30.5,-201 30.5,-189 30.5,-189 30.5,-183 36.5,-177 42.5,-177 42.5,-177 82.5,-177 82.5,-177 88.5,-177 94.5,-183 94.5,-189 94.5,-189 94.5,-201 94.5,-201 94.5,-207 88.5,-213 82.5,-213"/>
<text text-anchor="middle" x="62.5" y="-198" font-family="Helvetica,sans-Serif" font-size="10.00">producer</text>
<text text-anchor="middle" x="62.5" y="-187" font-family="Helvetica,sans-Serif" font-size="10.00">240 msgs</text>
</g>
<!-- e5l -->
<g id="node6" class="node">
<title>e5l</title>
<path fill="white" stroke="#008300" stroke-width="1.2" d="M235.5,-186C235.5,-186 200.5,-186 200.5,-186 194.5,-186 188.5,-180 188.5,-174 188.5,-174 188.5,-162 188.5,-162 188.5,-156 194.5,-150 200.5,-150 200.5,-150 235.5,-150 235.5,-150 241.5,-150 247.5,-156 247.5,-162 247.5,-162 247.5,-174 247.5,-174 247.5,-180 241.5,-186 235.5,-186"/>
<text text-anchor="middle" x="218" y="-165.5" font-family="Helvetica,sans-Serif" font-size="10.00">left 5 ms</text>
</g>
<!-- e5p&#45;&gt;e5l -->
<g id="edge4" class="edge">
<title>e5p&#45;&gt;e5l</title>
<path fill="none" stroke="#52514e" d="M94.56,-189.54C119.63,-185.13 154.91,-178.92 181.17,-174.3"/>
<polygon fill="#52514e" stroke="#52514e" points="181.85,-176.67 188.32,-173.05 181,-171.85 181.85,-176.67"/>
</g>
<!-- e5r -->
<g id="node7" class="node">
<title>e5r</title>
<path fill="white" stroke="#008300" stroke-width="1.2" d="M239,-240C239,-240 197,-240 197,-240 191,-240 185,-234 185,-228 185,-228 185,-216 185,-216 185,-210 191,-204 197,-204 197,-204 239,-204 239,-204 245,-204 251,-210 251,-216 251,-216 251,-228 251,-228 251,-234 245,-240 239,-240"/>
<text text-anchor="middle" x="218" y="-219.5" font-family="Helvetica,sans-Serif" font-size="10.00">right 5 ms</text>
</g>
<!-- e5p&#45;&gt;e5r -->
<g id="edge6" class="edge">
<title>e5p&#45;&gt;e5r</title>
<path fill="none" stroke="#52514e" d="M94.56,-200.46C118.59,-204.69 152,-210.57 177.85,-215.11"/>
<polygon fill="#52514e" stroke="#52514e" points="177.61,-217.56 184.93,-216.36 178.46,-212.73 177.61,-217.56"/>
</g>
<!-- e5j -->
<g id="node8" class="node">
<title>e5j</title>
<path fill="white" stroke="#008300" stroke-width="1.2" d="M443,-215.5C443,-215.5 339,-215.5 339,-215.5 333,-215.5 327,-209.5 327,-203.5 327,-203.5 327,-186.5 327,-186.5 327,-180.5 333,-174.5 339,-174.5 339,-174.5 443,-174.5 443,-174.5 449,-174.5 455,-180.5 455,-186.5 455,-186.5 455,-203.5 455,-203.5 455,-209.5 449,-215.5 443,-215.5"/>
<text text-anchor="middle" x="391" y="-203.5" font-family="Helvetica,sans-Serif" font-size="10.00">joiner 20 ms</text>
<text text-anchor="middle" x="391" y="-192.5" font-family="Helvetica,sans-Serif" font-size="10.00">nb_tasks ∈ {1,2,4}</text>
<text text-anchor="middle" x="391" y="-181.5" font-family="Helvetica,sans-Serif" font-size="10.00">partition_by = trace_id</text>
</g>
<!-- e5l&#45;&gt;e5j -->
<g id="edge5" class="edge">
<title>e5l&#45;&gt;e5j</title>
<path fill="none" stroke="#52514e" d="M247.62,-172.52C267.35,-175.63 294.47,-179.92 319.75,-183.91"/>
<polygon fill="#52514e" stroke="#52514e" points="319.53,-186.35 326.83,-185.03 320.3,-181.51 319.53,-186.35"/>
</g>
<!-- e5r&#45;&gt;e5j -->
<g id="edge7" class="edge">
<title>e5r&#45;&gt;e5j</title>
<path fill="none" stroke="#52514e" d="M251.16,-216.92C270.54,-213.86 295.99,-209.84 319.81,-206.08"/>
<polygon fill="#52514e" stroke="#52514e" points="320.27,-208.49 326.8,-204.98 319.51,-203.65 320.27,-208.49"/>
</g>
<!-- e5s -->
<g id="node9" class="node">
<title>e5s</title>
<path fill="white" stroke="#e87ba4" stroke-width="1.2" d="M533,-213C533,-213 503,-213 503,-213 497,-213 491,-207 491,-201 491,-201 491,-189 491,-189 491,-183 497,-177 503,-177 503,-177 533,-177 533,-177 539,-177 545,-183 545,-189 545,-189 545,-201 545,-201 545,-207 539,-213 533,-213"/>
<text text-anchor="middle" x="518" y="-192.5" font-family="Helvetica,sans-Serif" font-size="10.00">sink</text>
</g>
<!-- e5j&#45;&gt;e5s -->
<g id="edge8" class="edge">
<title>e5j&#45;&gt;e5s</title>
<path fill="none" stroke="#52514e" d="M455.23,-195C465.07,-195 474.89,-195 483.7,-195"/>
<polygon fill="#52514e" stroke="#52514e" points="483.85,-197.45 490.85,-195 483.85,-192.55 483.85,-197.45"/>
</g>
<!-- e4p -->
<g id="node10" class="node">
<title>e4p</title>
<path fill="#eaf2fc" stroke="#2a78d6" stroke-width="1.2" d="M84,-320C84,-320 41,-320 41,-320 35,-320 29,-314 29,-308 29,-308 29,-296 29,-296 29,-290 35,-284 41,-284 41,-284 84,-284 84,-284 90,-284 96,-290 96,-296 96,-296 96,-308 96,-308 96,-314 90,-320 84,-320"/>
<text text-anchor="middle" x="62.5" y="-305" font-family="Helvetica,sans-Serif" font-size="10.00">producer</text>
<text text-anchor="middle" x="62.5" y="-294" font-family="Helvetica,sans-Serif" font-size="10.00">100 msg/s</text>
</g>
<!-- e4w -->
<g id="node11" class="node">
<title>e4w</title>
<path fill="white" stroke="#008300" stroke-width="1.2" d="M262.5,-320C262.5,-320 173.5,-320 173.5,-320 167.5,-320 161.5,-314 161.5,-308 161.5,-308 161.5,-296 161.5,-296 161.5,-290 167.5,-284 173.5,-284 173.5,-284 262.5,-284 262.5,-284 268.5,-284 274.5,-290 274.5,-296 274.5,-296 274.5,-308 274.5,-308 274.5,-314 268.5,-320 262.5,-320"/>
<text text-anchor="middle" x="218" y="-305" font-family="Helvetica,sans-Serif" font-size="10.00">stage 25 ms</text>
<text text-anchor="middle" x="218" y="-294" font-family="Helvetica,sans-Serif" font-size="10.00">(40 msg/s capacity)</text>
</g>
<!-- e4p&#45;&gt;e4w -->
<g id="edge9" class="edge">
<title>e4p&#45;&gt;e4w</title>
<path fill="none" stroke="#52514e" d="M96.05,-302C112.9,-302 134.07,-302 153.96,-302"/>
<polygon fill="#52514e" stroke="#52514e" points="154.22,-304.45 161.22,-302 154.22,-299.55 154.22,-304.45"/>
</g>
<!-- e4s -->
<g id="node12" class="node">
<title>e4s</title>
<path fill="white" stroke="#e87ba4" stroke-width="1.2" d="M406,-320C406,-320 376,-320 376,-320 370,-320 364,-314 364,-308 364,-308 364,-296 364,-296 364,-290 370,-284 376,-284 376,-284 406,-284 406,-284 412,-284 418,-290 418,-296 418,-296 418,-308 418,-308 418,-314 412,-320 406,-320"/>
<text text-anchor="middle" x="391" y="-299.5" font-family="Helvetica,sans-Serif" font-size="10.00">sink</text>
</g>
<!-- e4w&#45;&gt;e4s -->
<g id="edge10" class="edge">
<title>e4w&#45;&gt;e4s</title>
<path fill="none" stroke="#52514e" d="M274.52,-302C301.62,-302 333.33,-302 356.65,-302"/>
<polygon fill="#52514e" stroke="#52514e" points="356.92,-304.45 363.92,-302 356.92,-299.55 356.92,-304.45"/>
</g>
<!-- e3p -->
<g id="node13" class="node">
<title>e3p</title>
<path fill="#eaf2fc" stroke="#2a78d6" stroke-width="1.2" d="M81,-400C81,-400 44,-400 44,-400 38,-400 32,-394 32,-388 32,-388 32,-376 32,-376 32,-370 38,-364 44,-364 44,-364 81,-364 81,-364 87,-364 93,-370 93,-376 93,-376 93,-388 93,-388 93,-394 87,-400 81,-400"/>
<text text-anchor="middle" x="62.5" y="-385" font-family="Helvetica,sans-Serif" font-size="10.00">producer</text>
<text text-anchor="middle" x="62.5" y="-374" font-family="Helvetica,sans-Serif" font-size="10.00">50 msg/s</text>
</g>
<!-- e3h1 -->
<g id="node14" class="node">
<title>e3h1</title>
<path fill="white" stroke="#008300" stroke-width="1.2" d="M233,-400C233,-400 203,-400 203,-400 197,-400 191,-394 191,-388 191,-388 191,-376 191,-376 191,-370 197,-364 203,-364 203,-364 233,-364 233,-364 239,-364 245,-370 245,-376 245,-376 245,-388 245,-388 245,-394 239,-400 233,-400"/>
<text text-anchor="middle" x="218" y="-379.5" font-family="Helvetica,sans-Serif" font-size="10.00">hop 1</text>
</g>
<!-- e3p&#45;&gt;e3h1 -->
<g id="edge11" class="edge">
<title>e3p&#45;&gt;e3h1</title>
<path fill="none" stroke="#52514e" d="M93.1,-382C118.98,-382 156.54,-382 183.51,-382"/>
<polygon fill="#52514e" stroke="#52514e" points="183.82,-384.45 190.82,-382 183.82,-379.55 183.82,-384.45"/>
</g>
<!-- e3hd -->
<g id="node15" class="node">
<title>e3hd</title>
<path fill="white" stroke="#008300" stroke-width="1.2" d="M421,-400C421,-400 361,-400 361,-400 355,-400 349,-394 349,-388 349,-388 349,-376 349,-376 349,-370 355,-364 361,-364 361,-364 421,-364 421,-364 427,-364 433,-370 433,-376 433,-376 433,-388 433,-388 433,-394 427,-400 421,-400"/>
<text text-anchor="middle" x="391" y="-385" font-family="Helvetica,sans-Serif" font-size="10.00">… hop D</text>
<text text-anchor="middle" x="391" y="-374" font-family="Helvetica,sans-Serif" font-size="10.00">D ∈ {1,2,4,8}</text>
</g>
<!-- e3h1&#45;&gt;e3hd -->
<g id="edge12" class="edge">
<title>e3h1&#45;&gt;e3hd</title>
<path fill="none" stroke="#52514e" d="M245.34,-382C270.93,-382 310.38,-382 341.62,-382"/>
<polygon fill="#52514e" stroke="#52514e" points="341.97,-384.45 348.97,-382 341.97,-379.55 341.97,-384.45"/>
</g>
<!-- e3s -->
<g id="node16" class="node">
<title>e3s</title>
<path fill="white" stroke="#e87ba4" stroke-width="1.2" d="M533,-400C533,-400 503,-400 503,-400 497,-400 491,-394 491,-388 491,-388 491,-376 491,-376 491,-370 497,-364 503,-364 503,-364 533,-364 533,-364 539,-364 545,-370 545,-376 545,-376 545,-388 545,-388 545,-394 539,-400 533,-400"/>
<text text-anchor="middle" x="518" y="-379.5" font-family="Helvetica,sans-Serif" font-size="10.00">sink</text>
</g>
<!-- e3hd&#45;&gt;e3s -->
<g id="edge13" class="edge">
<title>e3hd&#45;&gt;e3s</title>
<path fill="none" stroke="#52514e" d="M433.28,-382C449.53,-382 467.96,-382 483.38,-382"/>
<polygon fill="#52514e" stroke="#52514e" points="483.69,-384.45 490.69,-382 483.69,-379.55 483.69,-384.45"/>
</g>
<!-- e2p -->
<g id="node17" class="node">
<title>e2p</title>
<path fill="#eaf2fc" stroke="#2a78d6" stroke-width="1.2" d="M82.5,-480C82.5,-480 42.5,-480 42.5,-480 36.5,-480 30.5,-474 30.5,-468 30.5,-468 30.5,-456 30.5,-456 30.5,-450 36.5,-444 42.5,-444 42.5,-444 82.5,-444 82.5,-444 88.5,-444 94.5,-450 94.5,-456 94.5,-456 94.5,-468 94.5,-468 94.5,-474 88.5,-480 82.5,-480"/>
<text text-anchor="middle" x="62.5" y="-465" font-family="Helvetica,sans-Serif" font-size="10.00">producer</text>
<text text-anchor="middle" x="62.5" y="-454" font-family="Helvetica,sans-Serif" font-size="10.00">240 msgs</text>
</g>
<!-- e2w -->
<g id="node18" class="node">
<title>e2w</title>
<path fill="white" stroke="#008300" stroke-width="1.2" d="M266,-480C266,-480 170,-480 170,-480 164,-480 158,-474 158,-468 158,-468 158,-456 158,-456 158,-450 164,-444 170,-444 170,-444 266,-444 266,-444 272,-444 278,-450 278,-456 278,-456 278,-468 278,-468 278,-474 272,-480 266,-480"/>
<text text-anchor="middle" x="218" y="-465" font-family="Helvetica,sans-Serif" font-size="10.00">stage 20 ms</text>
<text text-anchor="middle" x="218" y="-454" font-family="Helvetica,sans-Serif" font-size="10.00">nb_tasks ∈ {1,2,4,8}</text>
</g>
<!-- e2p&#45;&gt;e2w -->
<g id="edge14" class="edge">
<title>e2p&#45;&gt;e2w</title>
<path fill="none" stroke="#52514e" d="M94.56,-462C110.71,-462 131.11,-462 150.6,-462"/>
<polygon fill="#52514e" stroke="#52514e" points="150.72,-464.45 157.72,-462 150.72,-459.55 150.72,-464.45"/>
</g>
<!-- e2s -->
<g id="node19" class="node">
<title>e2s</title>
<path fill="white" stroke="#e87ba4" stroke-width="1.2" d="M406,-480C406,-480 376,-480 376,-480 370,-480 364,-474 364,-468 364,-468 364,-456 364,-456 364,-450 370,-444 376,-444 376,-444 406,-444 406,-444 412,-444 418,-450 418,-456 418,-456 418,-468 418,-468 418,-474 412,-480 406,-480"/>
<text text-anchor="middle" x="391" y="-459.5" font-family="Helvetica,sans-Serif" font-size="10.00">sink</text>
</g>
<!-- e2w&#45;&gt;e2s -->
<g id="edge15" class="edge">
<title>e2w&#45;&gt;e2s</title>
<path fill="none" stroke="#52514e" d="M278.33,-462C304.5,-462 334.29,-462 356.52,-462"/>
<polygon fill="#52514e" stroke="#52514e" points="356.75,-464.45 363.75,-462 356.75,-459.55 356.75,-464.45"/>
</g>
</g>
</svg>
